<svg width="518" height="104" viewBox="0 0 518 104" fill="none" xmlns="http://www.w3.org/2000/svg">
<circle cx="50" cy="52.6766" r="50" fill="#DC7E49"/>
<path fill-rule="evenodd" clip-rule="evenodd" d="M134.084 28.7483C133.27 28.9288 132.383 28.6747 131.806 27.9963L122.292 16.7525L113.756 52.9187C113.547 53.7952 112.866 54.468 112.007 54.6585L87.9989 59.9826C87.2755 60.143 86.517 59.9317 85.9572 59.4392L68.0086 43.4246L40.3604 49.5558C39.5691 49.7313 38.7555 49.4848 38.2032 48.9194C37.6233 48.3364 37.3976 47.5326 37.5813 46.7566L40.1581 35.7015C40.3443 34.8301 41.0479 34.1523 41.9069 33.9618L87.9496 23.8226L89.6344 19.2271C89.896 18.4813 90.5342 17.9365 91.3028 17.7661L118.069 11.8304L112.188 4.88061L106.446 6.15397C105.202 6.4297 103.959 5.63798 103.684 4.3946C103.408 3.15122 104.2 1.90832 105.443 1.63259L112.541 0.0584312C113.401 -0.132072 114.269 0.149613 114.819 0.810416L135.296 25.0165C136.129 25.9939 136.001 27.4456 135.063 28.2464C134.787 28.4974 134.445 28.6681 134.084 28.7483ZM88.1216 55.1879L109.553 50.4354L113.584 33.3179L86.0263 39.429C85.1899 39.6145 84.3436 39.3278 83.7762 38.6947C83.2315 38.0565 83.0586 37.1698 83.3553 36.3687L86.0586 28.9857L44.3338 38.1673L42.9246 44.2197L68.1313 38.6299C68.8547 38.4695 69.6131 38.6808 70.173 39.1734L88.1216 55.1879ZM89.1557 33.9676L114.724 28.2977L117.49 16.7027L93.5488 22.0117L89.1557 33.9676ZM130.715 13.7699C131.958 13.4942 132.75 12.2513 132.474 11.0079L130.835 3.61547C130.559 2.37209 129.316 1.58038 128.073 1.8561C126.829 2.13183 126.038 3.37474 126.313 4.61812L127.953 12.0106C128.228 13.254 129.471 14.0457 130.715 13.7699ZM156.156 12.6844C163.057 12.6844 169.112 14.0841 174.32 16.8836C179.529 19.6831 183.565 23.5894 186.43 28.6024C189.359 33.6154 190.824 39.5073 190.824 46.2782C190.824 52.7235 189.457 58.5828 186.723 63.8563C183.988 69.0646 180.082 73.1987 175.004 76.2586C169.926 79.3185 163.871 80.8485 156.84 80.8485C152.348 80.8485 147.856 80.6206 143.363 80.1649C138.936 79.7091 134.737 79.0907 130.766 78.3094V59.6766H131.1C127.529 57.6698 124.793 54.1278 123.799 49.648C121.949 41.3061 126.722 33.4167 134.68 31.652C138.546 30.7948 142.509 31.5525 145.843 33.7542C149.155 35.9609 151.447 39.3425 152.329 43.3213C153.904 50.424 150.482 57.2213 144.34 60.0965V67.0789C146.293 67.4696 148.311 67.7625 150.395 67.9578C152.543 68.088 154.561 68.1532 156.449 68.1532C160.746 68.1532 164.425 67.2417 167.484 65.4188C170.544 63.5308 172.888 60.9591 174.516 57.7039C176.143 54.4487 176.957 50.8029 176.957 46.7664C176.957 42.5998 176.143 38.9214 174.516 35.7313C172.888 32.5412 170.544 30.0347 167.484 28.2117C164.425 26.3237 160.746 25.3797 156.449 25.3797C154.496 25.3797 152.445 25.4774 150.297 25.6727C149.858 25.7126 149.426 25.7552 149 25.8006V12.9168C151.356 12.7619 153.742 12.6844 156.156 12.6844ZM222.856 12.9774C226.632 12.9774 230.082 13.4982 233.207 14.5399C236.332 15.5815 238.969 16.786 241.117 18.1532V31.5321C238.773 30.0998 236.267 28.7651 233.598 27.5282C230.928 26.2912 227.901 25.6727 224.516 25.6727C222.823 25.6727 221.13 25.9331 219.438 26.4539C217.81 26.9748 216.443 27.756 215.336 28.7977C214.294 29.8393 213.773 31.174 213.773 32.8016C213.773 34.95 214.717 36.5776 216.606 37.6844C218.494 38.7912 220.805 39.8979 223.539 41.0047L231.547 44.325C236.104 46.2782 239.457 48.6545 241.606 51.4539C243.754 54.2534 244.828 57.4435 244.828 61.0242C244.828 64.9305 243.689 68.381 241.41 71.3758C239.197 74.3055 236.202 76.6167 232.426 78.3094C228.715 80.0021 224.581 80.8485 220.023 80.8485C216.182 80.8485 212.504 80.1974 208.988 78.8953C205.473 77.5933 202.413 75.9982 199.809 74.1102V60.7313C202.673 62.8146 205.831 64.5724 209.281 66.0047C212.732 67.437 216.41 68.1532 220.316 68.1532C223.051 68.1532 225.395 67.6323 227.348 66.5907C229.301 65.4839 230.277 63.8563 230.277 61.7078C230.277 60.0151 229.464 58.6479 227.836 57.6063C226.273 56.4995 224.548 55.588 222.66 54.8719L212.602 50.9657C207.523 49.0125 204.073 46.4735 202.25 43.3485C200.492 40.1584 199.613 36.6427 199.613 32.8016C199.613 28.8302 200.688 25.3797 202.836 22.45C205.05 19.4552 207.914 17.144 211.43 15.5164C214.945 13.8237 218.754 12.9774 222.856 12.9774ZM284.574 29.0907C288.481 29.0907 292.094 30.0998 295.414 32.118C298.8 34.0711 301.501 36.9683 303.52 40.8094C305.603 44.5854 306.645 49.2078 306.645 54.6766C306.645 60.1453 305.603 64.8654 303.52 68.8367C301.501 72.8081 298.734 75.868 295.219 78.0164C291.768 80.0998 287.927 81.1414 283.695 81.1414C280.961 81.1414 278.227 80.4904 275.492 79.1883C272.823 77.8211 270.577 76.1284 268.754 74.1102V103.114H256.352V30.3602H268.754V38.661C270.186 35.9917 272.27 33.7456 275.004 31.9227C277.738 30.0347 280.928 29.0907 284.574 29.0907ZM281.449 41.493C279.236 41.493 277.152 42.0789 275.199 43.2508C273.246 44.3576 271.651 45.9526 270.414 48.036C269.242 50.1193 268.689 52.6258 268.754 55.5555V62.6844C270.512 64.5073 272.4 66.0373 274.418 67.2742C276.501 68.4461 278.747 69.0321 281.156 69.0321C283.695 69.0321 285.909 68.3485 287.797 66.9813C289.685 65.6141 291.15 63.8563 292.191 61.7078C293.233 59.4943 293.754 57.1505 293.754 54.6766C293.754 50.9657 292.615 47.8407 290.336 45.3016C288.122 42.7625 285.16 41.493 281.449 41.493ZM337.992 29.0907C340.661 29.0907 343.363 29.7091 346.098 30.9461C348.832 32.1831 351.111 33.8433 352.934 35.9266V30.3602H365.336V79.6766H352.934V71.3758C351.501 74.0451 349.418 76.3563 346.684 78.3094C343.949 80.1974 340.759 81.1414 337.113 81.1414C333.142 81.1414 329.464 80.1323 326.078 78.1141C322.758 76.0959 320.089 73.1662 318.07 69.325C316.052 65.4839 315.043 60.8289 315.043 55.3602C315.043 49.8914 316.052 45.2039 318.07 41.2977C320.154 37.3914 322.921 34.3966 326.371 32.3133C329.887 30.1649 333.76 29.0907 337.992 29.0907ZM340.531 41.2C337.927 41.2 335.681 41.8836 333.793 43.2508C331.97 44.5529 330.538 46.2782 329.496 48.4266C328.454 50.575 327.934 52.8862 327.934 55.3602C327.934 59.0711 329.04 62.2287 331.254 64.8328C333.533 67.437 336.527 68.7391 340.238 68.7391C342.452 68.7391 344.503 68.1532 346.391 66.9813C348.344 65.8094 349.906 64.1818 351.078 62.0985C352.315 59.95 352.934 57.3784 352.934 54.3836V47.3524C351.176 45.4644 349.255 43.967 347.172 42.8602C345.154 41.7534 342.94 41.2 340.531 41.2ZM398.441 16.0047V30.3602H412.113V40.7117H398.441V62.0008C398.441 64.2143 398.93 65.9722 399.906 67.2742C400.948 68.5112 402.478 69.1297 404.496 69.1297C406.254 69.1297 407.751 68.9344 408.988 68.5438C410.29 68.1532 411.495 67.5998 412.602 66.8836V76.7469C411.365 77.9839 409.802 79.0256 407.914 79.8719C406.091 80.7183 403.78 81.1414 400.981 81.1414C396.553 81.1414 392.94 79.7417 390.141 76.9422C387.406 74.0776 386.039 70.1714 386.039 65.2235V40.7117H377.152V34.3641C380.277 33.2573 383.142 31.174 385.746 28.1141C388.415 25.0542 390.531 21.0177 392.094 16.0047H398.441ZM447.27 29.0907C450.915 29.0907 453.91 29.6766 456.254 30.8485C458.598 32.0203 460.453 33.1597 461.82 34.2664V45.6922C460.128 44.4552 458.207 43.4136 456.059 42.5672C453.975 41.7209 451.404 41.2977 448.344 41.2977C445.87 41.2977 443.559 41.9162 441.41 43.1532C439.327 44.3901 437.667 46.0503 436.43 48.1336C435.193 50.217 434.574 52.5933 434.574 55.2625C434.574 59.299 435.876 62.6193 438.481 65.2235C441.085 67.8276 444.372 69.1297 448.344 69.1297C451.404 69.1297 453.975 68.7391 456.059 67.9578C458.207 67.1115 460.128 66.0698 461.82 64.8328V76.161C460.453 77.3328 458.598 78.4722 456.254 79.5789C453.91 80.6206 450.915 81.1414 447.27 81.1414C442.257 81.1414 437.797 79.9696 433.891 77.6258C430.049 75.217 426.99 72.0594 424.711 68.1532C422.497 64.1818 421.391 59.8849 421.391 55.2625C421.391 51.812 422.009 48.5242 423.246 45.3992C424.548 42.2742 426.371 39.5073 428.715 37.0985C431.059 34.6245 433.793 32.6714 436.918 31.2391C440.108 29.8068 443.559 29.0907 447.27 29.0907ZM500.199 29.0907C505.212 29.0907 509.411 30.7834 512.797 34.1688C516.182 37.5542 517.875 42.6323 517.875 49.4032V79.6766H505.473L505.375 51.0633C505.375 47.743 504.561 45.269 502.934 43.6414C501.371 42.0138 499.19 41.2 496.391 41.2C494.177 41.2 492.094 41.9162 490.141 43.3485C488.253 44.7808 486.625 46.4735 485.258 48.4266V79.6766H472.856V9.36409H485.258V37.3914C486.755 35.3732 488.773 33.4852 491.313 31.7274C493.917 29.9696 496.879 29.0907 500.199 29.0907ZM128.321 48.6454C129.604 54.4328 134.704 57.8559 140.22 56.6326C145.736 55.4094 149.066 49.9983 147.808 44.324C146.524 38.5366 141.199 34.9502 135.683 36.1734C130.28 37.3716 127.037 42.858 128.321 48.6454Z" fill="#092C4C"/>
<path d="M57.8618 48.687C49.9042 50.4517 45.1311 58.3411 46.981 66.683C48.8008 74.8893 56.469 79.9487 64.4041 78.189C72.4747 76.3993 77.3583 68.5802 75.5109 60.3563C74.6285 56.3775 72.3369 52.9959 69.025 50.7892C65.6906 48.5875 61.7276 47.8298 57.8618 48.687ZM63.4014 73.6676C57.8853 74.8909 52.7857 71.4678 51.5023 65.6804C50.2189 59.893 53.4614 54.4066 58.8644 53.2084C64.3805 51.9852 69.7287 55.5666 70.9895 61.359C72.2478 67.0333 68.9175 72.4444 63.4014 73.6676Z" fill="white"/>
</svg>